# xmcd
#
# Track frame offsets: 
#        150
#        15917
#        32002
#        51382
#        70007
#        88772
#        104035
#        116962
#        133675
#        147535
#        162047
#
# Disc length: 2377 seconds
#
# Revision: 4
# Processed by: cddbd v1.4PL0 Copyright (c) Steve Scherf et al.
# Submitted via: ExactAudioCopy v0.90b4
#
DISCID=9b09470b
DTITLE=Brooks and Dunn - Borderline
DYEAR=1996
DGENRE=Country
TTITLE0=My Maria
TTITLE1=A Man This Lonely
TTITLE2=Why Would I Say Goodbye
TTITLE3=Mama Don't Get Dressed Up For Nothing
TTITLE4=I Am That Man
TTITLE5=More Than A Margarita
TTITLE6=Redneck Rhythm and Blues
TTITLE7=My Love Will Follow You
TTITLE8=One Heartache At A Time
TTITLE9=Tequila Town
TTITLE10=White Line Casanova
EXTD=
EXTT0=
EXTT1=
EXTT2=
EXTT3=
EXTT4=
EXTT5=
EXTT6=
EXTT7=
EXTT8=
EXTT9=
EXTT10=
PLAYORDER=
